<mxfile host="65bd71144e">
    <diagram id="LQUETKgJe4mkBnREWeL4" name="第 1 页">
        <mxGraphModel dx="966" dy="619" grid="1" gridSize="10" guides="1" tooltips="1" connect="1" arrows="1" fold="1" page="1" pageScale="1" pageWidth="850" pageHeight="1100" math="0" shadow="0">
            <root>
                <mxCell id="0"/>
                <mxCell id="1" parent="0"/>
                <mxCell id="2" value="" style="shape=image;verticalLabelPosition=bottom;labelBackgroundColor=default;verticalAlign=top;aspect=fixed;imageAspect=0;image=data:image/png,iVBORw0KGgoAAAANSUhEUgAAAgEAAAE4CAYAAADCeyCZAAAgAElEQVR4nOzdXUxbZ74/+m+PeqQtzdz969Yv6U4A0yPUsyvZdej+085/SJlp0iiD6CGB3aNBMS92MKmq3lAQm4igEMckF02rBoghkVWkSQKkIIIgaUOKtqZsBYwtZdqi00DSNI3t4J6L6MxIc7fOxVq2l+3lV97x9yNZY9az1rN+djo8v+dl8Tz37P/7uwAiIiLKOf/bZgdAREREm4NJABERUY56/v/5cXmzYyAiIqJN8JwgCFwTQERElIM4HUBERJSjmAQQERHlKCYBREREOYpJABERUY7aUknA3eeey7gs2TVrcT4REdFOtSWSgLvPPRdunJXe333uObyh8BBDouPJvCEITASIiHY0LwYbbOiaCOR4DKk9n9VV/llYTI8wCQCHdsN7sQQvpnXhf+O750qA/xbwf/575GiyhjxRWbqJQSYjCPLr/t8rlVgarYR+6P/G/0gYHRERbajAFLouAMdOvQvVBtxusc8Gd3EvaowbcDNFXgw2ODENAFCjpqsDZWqpyOOEuccrvjdZ4Wo0ZFx7FknA9/jM9BQH3e+jXwOsjI3CcP57PPno1cyrkig13MkSg0xGBtZqBIGIiLYLA2oGendEDMGJcaCpFy4jEJzoRPOFKbx26l2oAlPo6gFaBnpRBDFZ6ZroQPshdco65TJPAjw+dDe/gica8cfHP/0TOOfDwkev4vWUF+fhfz/yfwG7oo+Ghujl/xsi77Gn6uGvZcP+P/KMWPq3PI4CEBFtCnkPGChriu6N3+uzYdANAAa0DFhRBKmRHIsMv+srZI1iYApd7eNYQvQ1AKJ71KEy+TG3TYoj5joFSWOIuk9Mr176vI8qohty1aEO1ITem4qhvyvdxz0HVByTYgnA9wRYeuJF8FBmIyQZJwErP/8dB/e8AOApRo/dweS7u9GCf6R5tRr/x9D1qCPyxly+FiDUoCslBkrJQGwCIL9GKWGIPRaXQPz7f+KNfwcREW24AKZPOMM9YLGB7MR0VwfKAMA/Dt97vXA1So1unxeuRgNUhzrgOiTWEJzoxMVwfV4Mtj9GpdRrhscJ84kpnFPoUYcZrXANZD4dkDiGAKZH/ajp6pU1/JkJuuewpCuHCsDiLwHsLlYjlDygojycIGQiuzUB+BWjx+7h8bH30W/8Hp8dTzcJiJfJNIBcosY/m/twoSAR0Vbih89vgCnc8BpgMjnh9gHQAtCU44BUJvaOAwgCiXvAnnlMw4vpBlvkmOZlALE96vWkhlYXQHe7Db4mpaQixfSBx4nmMQ1aBuTz/l4MNoxD29WLMkyhayOSgBf/9beY/NM9/NuN9/GhEYD/Gf4G4M3M7x2mNBqQak2A0ns5zvkTEeUA32Ms6famHgJPsHAuuC5BKStq7IUL4uiCuSd+iiMhjxPmHj9qujrCycoLu9SY7hmPTCl4HmMJL2ccU+aPCBq1aMELeFMKfOHaI0w2a9NYD5DYG4IQNfyfqgEPnaP0CpUTEdF2pYFW44XbI/0YmMJ1txpabfyZi3Ne6Hdpkldn3Isy9zimFZ7WU2k1WBobx2KSyx/5lB/zW+yzwdzgTHqtkqLGXpyrUMfUm+CRwsAUuqQEQD6NoDIVQ68pxmtqQJxq8EL/hiHjJyaymA54FR/e8EGnuyL+eGg3vBezfzIAyPzpgER1AEwAiIi2PzXKjpejq90Gs3SkrEmaSw8A8I+juWFcLDBZ4Uq5It6AmqZ5mNttGJSOhBfsGa04V9GJ5vBUQfTiv6KKcqC9E+ax+LLMRC90FOtKFXcA0xfExYxLstjFEYR3ceyNzgy/h3ibvpVw7AK+VO+VrgdSTx8kSjKYPBAR7Tyb/3z/1oghlSwXBq4dpRX86TT6sdenc49My4iIaOOdsp/F8oOHGV3jGujA9IlODPqlAyYrXEbALF8MuM62Qgy1R/+M3/8u/VV6mz4SQERERJtjS+wdQERERBuPSQAREVGOev7Zs2ebHQMRERFtAq4JICIiylGcDiAiIspRTAKIiIhyFJMAIiKiHLXtk4C8/MKkP6c6P9O6QsdS3YeIiGir2/ZJQDry8gvDL6Wfs/HwwX0mAkREW1KCzXhyLobUtnUSkJdfiIcP7kcdS9Q4P3xwP3yu/H2onnTqlpcxASAi2gSBKXSdmNqwLYAX+2wY9KQ+b/2IyYS5wQZzQ6fCTohSeZbfyabvHbARYhOD0PtkjXyoLPRefn2i64iIaCswoGagd0fEEJwYB5p64TICwYlONF+Ywmun3g1vGbzY58QjkwH6J9nVv22TgGQ99VCjLS+PbdTTqV9+nfx6IiJab9Fb74rb50ZK7/XZMOgG5Nv7Bic60TwW6SqHtwsGxBGEdnFb3rgtgT1OmHu80g9SmfyY2ybFkXor4aQxRN1HjZquDnF7ZNnnfSQ/H4DqUAdqQu9NxdDfld3M40T3k3KcOw5cvJAkqCS2ZRKg1DuPFZsIZDISkKrB56gAEdF6CmD6hDPcAxYbyE5Md3WgDAD84/C91wtXo9To9nnhajRAdagDrkNiDcGJTlwM1+fFYPtjVA70ig24xwnziSmcO/UuVIEpdPUALaGyEKMVroHMtwNOHEMA06N+1HT1yhr+zATdc1jSlUujAF4M9vhR02WFClPZVYgs1wQERyyyxXUORKZLvLDLFt3VjchmKALDqJOV2d2RIo8jcjyvbjjlvIbS3H7ovVLvP9G5ycSOGMjXASjdK7G1/k6S1EdEtCP44fMbYAo3vAaYTAH4fNKPmnIckMpUpmLonwSStxueeUzDi+7Q3Hq4Ny42rKgoT9q7XxtqaHUBDLYnWmMgTh/IRwGieJxoHtOgpdEAQJoGqDiWdUIRktVIgOpwPx4eVioxoO3BfbQpFamP4PKDI4r1GVvv42FrNpGkJ9mjf0oNeexjgPIGX16WXhKw1t9JkvqIiHKN7zGWdHvDc+QJmaxwSQ2o3EZ2o4oae+GCOLpg7omf4kjI44S5x4+arg4pWfHC7QaW3J0wj0VOa26Yi5liSG1bPx0ApNcYx/bcU/Xk5eWJkgROAxARrRcNtBov3KEec2AK191qaLXxZy7OeaHfpUlenXEvytzjCivrAZVWg6WxcSwmufyRT/kxv8U+G8wNzqTXKilq7MW5CnVMvQkeKQxMoUtKACKNuzhq4Aq9usqh15Tj3EBmCQCwTdcEZCPZmoBkTwkolWe6yJCIiDKhRtnxcnS122CWjpQ1SXPpAQD+cTQ3jIsFJitciYbQwwyoaZqHud2GQelIeMGe0YpzFZ1obrCFz5Uv/iuqKAfaQz3u1AsDE4te6CjWlSruAKYviIsZl2Sxpz2CkIZtvYtgokZY6bjSHH+icxI1/vJypScQiIhoa8h0Qd9OjSGVbTsSoNSoh6Tq2acqU2r85cf51wKJiNbPKftZLD94mNE1roEOTJ/oxKBfOmCywmUEzOEe/vrbCjHUHv0zfv+7N9M+f1uPBBAREVH2tv3CQCIiIsoOkwAiIqIcxSSAiIgoRzEJICIiylFMAoiIiHIUkwAiIqIcxSSAiIgoRzEJICIiylFMAoiIiHIUkwAiIqIcxSSAiIgoRzEJICIiylFMAoiIiHIUkwAiIqIcxSSAiIgoRzEJICIiylFMAoiIiHIUkwAiIqIcxSSAiIgoRzEJICIiylFMAoiIiHIUkwAiIqIcxSSAiIgoRzEJICIiylFMAoiIiHIUkwAiIqIcxSSAiIgoRzEJICIiylFMAoiIiHIUkwAiIqIcxSSAiIgoRzEJICIiylHPP3v2bLNjICIiok3wnCAIwmYHQURERBuP0wFEREQ5ikkAERFRjmISQERElKOYBBAREeWoDU4CvLDnF8LuXqPq3A7k5TvgyeJSj2MN41hDwREL8uqGEVzXu3hhz/J7IyLa+rwYbLChayKQ4zGklkUSIDbkeaHXujVYQVyri64/OGJB3UiKu7kd4dgSnRscsaASQ2gzrWG4bgfyHN60T/c4ClPGuXaCuFZnwbXwf4sGtA0BlWv2b/c9PtN9jYU1qWs7x0BE6y4wha4TU+vcUYpY7LNhcFN7TGIyYW6wwdzQiWlZThGc6JSO22DuS7/9kXs+u6Dqcf1BK4wI4lpdCVpGSnH5sCqN6wxoe3A/g/uUYh++wp3AEVSrFYpNrXj4QOlYK4IjFrQoVRkYRsvHBbj+wJBBHGssMIzPf7Rj7sERxH5rqsP9eHh4A2IwteL6K4UZ/NsREW0XBtQM9O6IGIIT40BTL1xGsdFvvjCF1069C5XHiea7xTg38C5UCCUrvagxZlb/KqcDVHj7YCm+Wfol5ZnBEUu45xs7DC8vix3e39/0Dm65YjMcaZRA4fyUcfz1K+BsPaK+p8Aw6hKMOARHLLCPDKMuFJ+8tx+QHa+6FHWfpD39X5bxzSv6mARANsIS00P3OCy4NpJghEMeQ8x3EYmhBK0z8d+F0WwHJmfiMmqPI/0RnoXzV6DT3UM3fkW57gp0uivQnf9equhr6M7PYvSYdFzWU184fwWfhYON6cV7vpbOvwLdsVmsbIMYiGityXvA8b3xe32hMicWpWNRPePYofjAFLoa4q8BAHicsuukMulYtxuY7klwnYKkMUTdJ7pXn2j6QHWoI9ywq0zF0Ifu4/ND/4Yh3I4UFRswPZfFaICQMY9wOu+MsCAIgiCsCFdr9cLp+fSvXjgTe768PrkV4Wptg3DVvyJcrRXLV4YbhNrhlTSuVTpXXmfMYf+QUFs7JKwoXLsy3CDsCd/DI5zOC10vfy8IwvwZYc8Zj8K9Zd+Rf0iozdMLe6JeMfHHxBL6zvaEjvmHhNqoeGTXz58Jn7cy3BCOJ+Hnjv0MSvdLy3fCp9qvBHfs4YWvBK32S+FLn/jj09EvhYbRgCAIguD+5C/CpwsK1/u+FRqs3wpPhcg12k++2yYxENHa8Au32xuFL8L///QIX9SfFG77BUHwTwqn6iNlKzdOCkd7PXE1rNw4KZy64Zddf1H4IVS4cFE42j4p/U6dFE7Jy2L80CuPIzPRMfiF2+3SZ1DkEb6ob5Sdr1xf6LNGf27x+1L6HlLJcjrgEirzxZ7vvrOzuLyqufVdKCi9hMr8ZThm+xWG/VWobgLqRoLoXs1tVmFfeORgFwpKpYPuW+i3NuFhXLxB3JmcwTczJcj7OHLU0gRAfQSXHxwR1w/c3o+HrelPSViapKkDtR56LEdiwCX058tGIUrtUgyAw56qftnnkTG23sfDtCNLofkVvKcR375Y8R76U5y+cvcpJif+iUndI1kdOyAGIsqAHz6/AabwkK0BJpMTbh8ALQBNOQ7Ie8d3AwgCcdOrYZ55TMOL6QZb5JjmZQBA0D0HVBxD0Xp8jChqaHUBdLfb4GtSGrZPMX3gcaJ5TIOWAfH3uurQMdSc6IS5Qay7psIApB6Uj7O6NQFuB/Kq2nDtLaXGO10qVF++j+rQEP9MaXwyYNoPfc8MHh/M9h4bTeEzrBfrkEIyke6SmV+wPFOAAxsRZwYOXngb/RUv5XwMRJQG32Ms6fYmTgBCTFa4GuM7Rhu1wBAAihp74YI4f2/uAcoUkwEFHifMPX7UdHXIkhU1yk71okz6KTjRCf0uTcYxrW5NgKkejtIZtEbN2Utz2xmslBeJycB16wyW47IZAywHl3FzaVXRQlzDANz6q8I/+8wyHgPSwkGFCfRYuwqwz3lLmoP3wh5eEyDeozVuHcM6MO2HxdkjW/UfokLhKzPhzxkcaVNcE4DAEpZKC/ByzOFM1gRE/B0/+zO6AH/7+SkAYOH8vfAoz4tvvAQcv5flKv+tEAMRrZ4GWo0X7tA6gMAUrrvV0Grjz1yc86Zu/Ix7UeYej5mDF6m0GiyNjSed63/kU37Mb7EvvXUCsYoae3GuQh1Tb4JHCgNT6JISgLJEHbbAFC6OaVB5KPMeXZYjASEqVNvtuFVyC55WA5IlNB5HISqd0g/OQvSHessYRl1JG74JnVhqx1yrwp3eKsDSx5eAs4CYaFSFh3X78y+J110+AoxYUBxuxMUhecvQ/fDjgKq33gFKLsFzuDUSr/oIPrAWSlMc9XCcLcWtVB895prrQ/Xovy3d47AdjroS5OWHTg49TZFEIPp7KM5vS9DLlzOgbagAeSWFCH1l+87O4vJhlbjor0T8/PvODsFR2hN3tcfVBhycTZ1Bp/Qq/uPCjzCYruADAGh+DU8+ejXpFa9X7wZMd6A7Dhy8sBst+IdYoCnB6QujMOiuhM9tufE+PkyZLW+FGIhobahRdrwcXe02mKUjZU29YiMYAOAfR3PDuFhgssKVsvEzoKZpHuZ2GwalI/qKDrQfUgNGK85VdKI5PFVgQMuANdzjLqooB9o7YR6LL8uMF4MNTkzLYmoZSBV3ANMXxrEEYEkWuziCIK8v+7hychfB4IgFxUtNGc3J7zhuB/J6CjB3Of4xRSKi7W6xzwZ3ceaPzO20GFJZ5UjA9qQ63I/rjkLY3ffX9g8GbRte2KuA6wp/p4CIaLOdsp/F8oPMlie7BjowfaITg6EpQZMVLiNgli8GXGdbIYbao3/G73/3Ztrn5+RIABEREXEDISIiopzFJICIiChHPf/s2bPNjoGIiIg2AdcEEBER5ShOBxAREeUoJgFEREQ5ikkAERFRjmISQERElKM2OAkQNxeyu9eoOrcDefkOeFKfGcfjWMM4MuKFPcuYiYgoHQk248m5GFLLIgmQdgkMvTLebS5d0tbCsvqDIxbUjaS4m9sRji3RucERCyoxtMo/GSzFl18Yn4gkjcGAtiGgcs2+t+/xme7rTd7xbivEQEQ5ITCFrhNTG7YF8GKfDYOb2GsLTnTC3GCTXp2ynRDFJCNc1pflzrVCxjzC6bwzwoIgCIKwIlyt1Qu1wyuZV5PSinC1tkGorW0QrvqlI8MNad8r4bn+IaE2HP9akH8facYgCMLCmbX63r4TPtV+JbjXoKbtHQMR5QT/pHCqfVJYj1ZHyQ+9jcIXa9dgrM7CReGo4mf3C7fbs4tzldMBKrx9sBTfLP2S8szgiCXcO44dhpeXxfaq9ze9g1uu2AwnSS88VRx//Qo4Wx+9rW9gGHWOYcU6o0cfgrhWZ8G1NRjdMZrtwORMXDbrcaQ/urJw/gp0unvoxq8o112BTncFuvPfSxV9Dd35WYwek47LeuoL56/gs/CXFtOL93wtnX8FumOzWNkGMRDRThTd043tjd/rC5U5sSgdi+41xwzFB6bQ1RB/DQDA45RdJ5VJx7rdwHRPgusUJI0h6j7yXn3k8yabPgj6/IBOrbDxmx8+vxpabYrgFKxyF8Eg7kzOwNLUn/JM1eF+PDwsNnI3o0q86P+4ANcf9ENxt8Vdpdj/4yV4YMDLkdpQffk+quGFPf9WhvEC++0Ke+c527A8dB8PL4sxfj5Sj8uH13GPPbUe+pke3AkcQXWqLaUTeP2j9/Hko+/xmc6HN5/8Ea/HnnDuKeB+H08uAitjo/jPsafor3gpcYX+WVgu/gbeJ3/EixCvMZz/Hk8+enVLx0BEO00A0yecQFMvXEZAbCA7Md3VgTIA8I/D914vXI1io9vc54Wr0QDVoQ64Dok1BCc6cTFcnxeD7Y9ROdCLIkBsjE9M4dypd6EKTKGrB2gJlYUYrXANZL4dcOIYApge9aOmqxdlGf7OX+wTkxHAgJYBg+xrmkJX+ziWAOgrOlCTRVuSZRJwCZX5lwAA+87O4vKq5tZ3oaD0Eirzl+GY7VdoEFWobgLqRoLoXs1tUim1wyJ9jpf1pet5J8kuFCjcxth6H5ltoJlE8yt4TyO+fbHiPaRK1VbuPsXkxD8xqXskq2MHxEBE24wfPr8BpnDDa4DJ5ITbB0ALQFOOA1KZylQM/d0AgkDirdE985iGF9PyLX01Yrcy6J4DKo5FJwDrQg2tLoDudht8TUpJhQE1A72KVxY19sIFSCMJTrQMWMV41e+ifeBdiElTJ7rQgfZDmWUCWSYB9bj+oBVGtwN5VW249pZS452uUK9eGuKfKY1PBkz7oe+ZweOD2d5jK/oFyzMFOJD197Y+Dl54O3lPPUdiIKJtwvcYS7q9iROAEJMVrkZD3OGNWmAIRBrzxT4bzD1AmWIykIRxL8owDl8AKIpqO9R47Q01Bn/xA8isUVndmgBTPRylM2iNmrOXnh5wZLpSUUwGrltnsBy3xMAAy8Fl3FxaVbQQ1zAAt/6a2T97aM1DcKQNrTOrjUESWMJSaYFsikOUyZqAiL/jZ39mt//bz08BAAvn74VHWF584yXg+L0sV/lvhRiIaGfQQKvxwh1aBxCYwnW38pz34pwX+l2a5NUZ96LMPR4zBy9SaTVYGhtPOtf/yKc8T7/Yl946gVhFjb04V6GOqTeNRwo985jWFOO1uHY+gHt3Aygrjk9yUlnlmgAVqu123Cq5BU+rQXlOX+JxFKLSKf3gLEQ/pB4/hlFX0oZvQieW2jHXqnCntwqw9PEl4CwgJhpV4aHl/vxL4nWXjwAjFhR/HGqpS5D3MWAZuh9+HFD11jtAySV4DrcmjTd838NNsORXIc8JwGqHo/QrqST7GADA42oDDs6mzl5TehX/ceFHGExX8AEANL+Wcv789erdgOkOdMeBgxd2owX/EAs0JTh9YRQG3ZXwuS033seHKb+orRADEe0capQdL0dXuw1m6UhZkzSXHgDgH0dzw7hYYLLClXII3ICapnmY220YlI7oK6Shc6MV5yo60RyeKjBEhtsBFFWUA+2dMI/Fl2XGi8EGJ6ZlMbUMpO61R9YDANCUi+sYgKj1AEAWowqSnNxFMDhiQfFSEx62Zp41rQm3A3k9BZi7fGQNkgAiIoqV6YK+nRpDKqscCdieVIf7cd1RCLv7/ir/YFA2vLBXAdcfMAEgIlJyyn4Wyw8yWyLtGujA9IlODIamJU1WuIyAWb4YcJ1thRhqj/4Zv//dm2mfn5MjAURERMQNhIiIiHIWkwAiIqIc9fyzZ882OwYiIiLaBFwTQERElKM4HUBERJSjmAQQERHlKCYBREREOWrbJwF5+YVJf051fqZ1hY6lug8REdFWt+2TgHTk5ReGX0o/Z+Phg/tMBIiItqQ0NuPJiRhS29Z/NjgvvxAPH9yPOhZqnJWOx14jTwpiz1c6Ji8jIqJNEJhC1wXgWGgjnXW22X//PzjRieaxUCKhRk1XB8rUscclCbZLTmZbJwHpiu21h94na+Rjkwb59YmuIyKircCAmoHeHRGD6lAHXIekHzxOmC9M4bVT70Yfh5gUXESKLZUVbNskIFlPXWk0QGkkIFX98utiRw+IiGg9RW+9G7tV7r0+GwbdgHx739jecXi7YCBm692YLYE9Tph7vNIPUpn8mNsmxZF6K+GkMUTdJ9Krl3/eR/LzY+v2+QHdXoUREC9ujmlQmcbWxLG2ZRKg1DuPFZsIZDISkKrB56gAEdF6CmD6hBNo6oXLCIgNZCemuzpQBgD+cfje64WrUWp0+7xwNRqiesdizzjEi8H2x6gc6BUbcI8T5hNTOHfqXagCU+jqAVpCZSFGK1wDmU8HJI4hgOlRP2q6emUNf3oW+2zoDic88cP9wYlxPKo4hprMqgWQ5cLA4IhFtrjOAU+4xAu7bNFd3UgwclFgGHWyMrs7UuRxRI7n1Q1DdpUiee889r1S7z/RucnEjhjIFxIq3Suxtf5OktRHRLQj+OHzG2AKN7wGmEwB+HzSj5pyHJDKVKZi6J8EkrcbnnlMw4vuBhvMDTZZbxwIuueAivKkvfu1oYZWF8Bguw2DHqVycfpAaRSgqLEXroFeuJqA7gYnFqNKvbg5BvxPU+ajAECWIwGqw/14eFipxIC2B/fRplSkPoLLD44o1mdsvY+HrdlEkp5kj/4pNeSxjwHKG/xkiwmVrfV3kqQ+IqJc43uMJcUh8hgJFs1tZDeqqLEXLog9e3NP/BRHSsa9KMM4fAGgSGrzgxPjmDaVw5VdDrD9HxFMpzGO7bmn6snLyxMlCZwGICJaLxpoNV64Qz3mwBSuu9XQauPPXJzzQr8rxYI4416UuccxrfC0nkqrwdLYeEzvOtojn/Jjfot9NpjjeuapFTX24lyFOqbeNB4p9MxjWlOM12TrCG6OATUVmT0RILct1wRkI9magFSPAqbzuCEREa0VNcqOl6Or3QazdKSsSZpLDwDwj6O5YVwsMFnhSrCQLsKAmqZ5mNttGJSOhBfsGa04V9GJ5gZb+Fz54r+iinKgvRPmsfiyzEQvdBTrSt19j6wHAKApF9cxSD+udhQA2Oa7CCZqhNN57j/ZOYkaf3l5or9HQEREm2+zn+/fKjGksm1HApQa9ZBs/shPsuuVRg74qCAR0fo4ZT+L5QcPM7rGNdCB6ROdGPRLB0xWuIyAOdzDX39bIYbao3/G73/3Ztrnb+uRACIiIsretl8YSERERNlhEkBERJSjmAQQERHlKCYBREREOYpJABERUY5iEkBERJSjmAQQERHlKCYBREREOYpJABERUY5iEkBERJSjmAQQERHlKCYBREREOYpJABERUY5iEkBERJSjmAQQERHlKCYBREREOYpJABERUY5iEkBERJSjmAQQERHlKCYBREREOYpJABERUY5iEkBERJSjmAQQERHlKCYBREREOYpJABERUY5iEkBERJSjmAQQERHlKCYBREREOYpJABERUY5iEkBERJSjmAQQERHlKCYBREREOer5Z8+ebXYMREREtAmeEwRB2OwgiIiIaONxOoCIiChHMQkgIiLKUUwCiIiIctS6JgF5+YWrOi/d6zOxmjrz8gvDLyIiou3u+c0OAAAePriPvPxCPHxwP3ws9ueNptTQb2Y8RESULi8GG5x4VNGB9kPqHI4htSySAC/s+VXoD/1Yasfc5SNQQbnhTNRrDjX8yc6V/5xtA5xpTMl+JiKiTRaYQtcF4Nipd6HagNst9tngLu5FjXEDbpZEcKITzWMBlDXJYvE4Ye7xiu9NVrgaDRnXm8kC4bkAACAASURBVOVIQD2uP2iFEUFcqytBy0gpLh9WZdyT34hGdiuNLhAR0UYwoGagd+fEEJjCxTENykyBqGNdPUDLQC+KICYrXROZjzqscjpAhbcPlqJ16RcgRU6WqAFONey+ng13qrpTzf0zoSAiWi/icPq09FNUDxjAvT4bBt0AYEDLgBVFiPSWQ/TyofjAFLrax7GE6GsARPeoQ2XyY26bFEfMdQqSxhB1HzVqujpQFm6zE00fBDB9YRy7m3phmrPBHbqPew6oOCbFEoDvCbD0xIvgocxGSFaZBARxZ3IGlqb+qKOZNtyxjX42daSSTX1s5ImINkMA0yecQFMvXEZAbCA7Md3VgTIA8I/D914vXI1So9vnhavRANWhDrgOiTUEJzpxMVyfF4Ptj1Ep9ZrhccJ8YgrnTr0LVUyPOsxohWsg8+mAxDEEMD3qR01Xr6zhTy04cRGDOitcRmBxLnL8118C2F2sRih5QEU59HfTrzckyyTgEirzLwEA9p2dxWVTpCSblfPrvdqeq/mJiLYTP3x+A0zhhtcAk8kJtw+AFoCmHAekMpWpGPq7AQSRZDzaM49peDHdYIsc07wMILZHvZ7U0OoC6G63wdeklFQoTB9I0wAtA4nm+r0YbBiHtqsXZZhC18YlAdKaALcDeVVtuPZWP6rVkd62vNFVep9sAd5aN9jZxpROPBwpICLaZL7HWNLtTT0EnmDhXHBdglJW1NgLF8TRBXNP/BRHrKB7DksIoFuevLhtmDZZcW6XGtM945EpBc9jLOHljGNa3d8JMNXDUTqDVpc4x6HUKD58cD98XP5ebj2fv882JqXz5S8iIlovGmg1Xrg90o+BKVx3q6HVxp+5OOeFfpcmeXXGvShzj2M6EF+k0mqwNDaOxSSXP/IpXAipMW9wJr1WSVFjL85VqGPq9WKwwYauicgx1aEOuAZ6w68Wk5g4uBoN4giIphivqQFxqsEL/RuGjJ+YWPXCwGq7HbdKbsHTakC2T1Cs50hANvgUARHRZlKj7Hg5utptMEtHypqkufQAAP84mhvGxQKTFa6UK+INqGmah7ndhkHpSHjBntGKcxWdaA73tqMX/xVVlAPtnTCPxZdlJnqho1jXKv5+gPpdHHujM8PvId667CKo1Igmezog2dMAa9UgZxsTpwOIiLafrfB8/1aIIZV1/YuBmf7xn1R/PCgRj6MQlU6lktDfM0g/JqXEIN1HG4mIaPVO2c9i+cHDjK5xDXRg+kQnBv3SAZO4ot4sn09fZ1shhtqjf8bvf/dm2uevy0gAERERbX3cRZCIiChHMQkgIiLKUc8/e/Zss2MgIiKiTcA1AURERDmK0wFEREQ5ikkAERFRjmISQERElKOYBBAREeWoDU4CvLDnF8Lu3ti7rpXgiAV1Ixu551Qa3A7kObybHQUR0RYSvxlPbsaQWhZJgNiQh3f+qxtev60Y3Y6oHQbz8h3wpL4qKY8jyyTE7UDx5DvoPhy7R5P8+7DgWop/7+CIJfx51iQZMrXiOqrWNjnxz8KiuwKd7gp0uq+xkPTkpxg9lu65q7cyNgrL2NN1vgsRbVmBKXSdmNqwLYAX+2wYXG3DswaCE50wN8TEEphCV0N2OxmGZLl3QOhv8gdxra4ELSOluBzXOCoxoC3TTXesQ3jYGr8H9Mbywl61DMdsa9w2jcGRHiydncXDtD4/oDrcj4eHxWTk5hpFZ2wdgj6/Ddfe6kf1KjalClm49gj/duN99Ke16cVLeO/i+3gP3+MznW/1NyciWjUDagZ6d04MgSlcHNOgzCTrZXqcMI++jHNd5bjY/jjrqlc5HaDC2wdL8c3SLynPTNYDlpel09sPjlhQ53CgLr8QeY5hXKuLXBccscA+MiyW5RdGhsqlUYVKJ9BfFX0vj6MwuiftdkSPcLhvod/apNjAPl6agX5PTAIQkN0/vzDtXnri7yEofcZEIwgGWM4Ct/4aex9xlCKzUYKn+HnxX/By7PbcUaMDV9LsjctHCa5Ad/77hGWfpfpHl+5vOP5PTB6/I103ilF/qK5RjI59HRdf9MiBdF5oc49MYyCiDSQOp5ulV2xv/F5fqCzSCw71lkOvqKH4cK9Zoefsccquk8qkY91uYLonwXUKksYQdZ9OTEeNHCeaPghg+sI4djdZYZIfNlrhOvVuXMc0Y0LGPMLpvDPCgiAIgrAiXK3VC6fn07964Uzs+fL6YsyfEfbk6WUv8byV4QbxvX9IqM3TC6fnV4SrtQ3CVb+sLEF88fcXBME/JNTWDgkrCc5Ruka8jz76dcaj8CEisWX7PUSf6xFO58XXJ8yfEfbIPkPkXL1QO7wipMP9yV8ErTb61TAaUDgzIHxp/VL40ic/9p3wqfYrwR0V+FeC9pPvEt7r0/CH/U74VBtbn7Kno18qxBQQvrT+RXavSCzR50fHnW0MRLTe/MLt9kbhi/D/Pz3CF/Unhdt+QRD8k8Kp+kjZyo2TwtHe+N+9KzdOCqdu+GXXXxR+CBUuXBSOtk+Kvy/9k8IpeVmMH3rlcWQmOga/cLtd+gyKPMIX9Y2y8yN1hD6fYiwp4k8ly+mAS6jMvwQA2Hd2FpdNKU5PahcKSi+hMn8ZjlmF4WyF6YAggH1n62HEDFBqh8UE3JGVi2VAaKTi1k9BwJQkX1KXYj/acCdwBNVqL27+aIelNXnUUcP6f7iPtqjvwAt7fhX6wz+XwpG8OiT+Hry46QT6nYXJ69tVgH1xdWY2/fL6R+/jyUdPMXpsFjj5Ht6LGg34Hp/p7qE7/PO/4POTKSrU/AYHz92DbvEZvBdL8KKsrm/PAd3nrkTXl3akSv4Fn1e/Kr1/FR8+Ed+vJDx/PWIgorXhh89vgCk8JWmAyeSE2wdAC0BTjgNSmcpUDP3dAIJA4l6xZx7T8GJavqWv5mUAQNA9B1QcQ9F6fIwoamh1AXS32+Br6kVN3HSrwvSBNA3QMrB+U+KrWxPgdiCvarVz0SpUX76P6tCQ90ypcjKQpcdLM4A+jRiaClD31yCq99wCmuLn/jPhcVShP5y8BHGtri2Nq5J9D6E1GEn8soxvXtm/+qGhBBbO30N382t48tGrEIfRZ1NfpClB/5OS8FD+5KHdsmTgBYw/+SNeX6d407MVYiCiVfE9xpJub+rffSYrXI3xjelGPu9V1NgLF8TFhuYeoEwxGYgIuuewhAC65cmL24bpBJ8lG6tbE2Cqh6N0Bq0u+SNq0mr5jB9bExvB69YZLKdeYpAmL246S7H/rej/PJZ+UvhnN+2HfnIG124DB2JGNox/qEf/7cw+zz79LvGN+xJaZzK5MvZ7MOCA9RI+TzGvH/xpOXLPsGzWBCR2cM8L4hvPPXwwkcGFmhL0P3kNLRP/gLh85VW82fwr+rJc5T/5069Znb8yNiuLe3UxENF60kCr8cIdWgcQmMJ1txpabfyZi3Ne6HfFLmKKYdyLMvd4zBy8SKXVYGlsPOlc/yOf8mNfi33ZrcwvauzFuQp1TL3xawJUhzrgGugNv1pMYuKwVgkAkPVIQIgK1XY7bpXcgqfVkLSn6nGIi/IAAM5C9EPq6WIYdSVt+CZ0Yqkdc/KheGcV8kLXST3il1NE9c3HJcj7WHxvGbofNapgNNuBklC5vIdtwIFXqlCJITyMrdC0H5aqHlwzpzdCEXUPqx2O0uVVfQ/i6v/IZ0KpHXOXj8gyXy/6Pwb2z67XOADwevVuwHQHuuMAmnfj80N/l0pipgl0VwCpx4+xURiO/zNcx8ELb+PDUH0fvYZ/00n1AeFrIlMGyl6seAUtunvQnbsH4F/wuTt22iLJ+c278fmhSKOfbQxEtN7UKDtejq52G8zSkbKmXpSpAQQA+MfR3DAuFpiscB1K9YvZgJqmeZjbbRiUjugrOtB+SA0YrThX0YnmcG/bgJYBa3h6oKiiHGjvhHksviwzXgw2ODEti6llYBVD3oEpdLWPY0n6sbvBlnC0I5kdt4tgcMSCFtjTfGQx6kpx2N6eoKF3O5DXUxDT+G4NHkchPtfPZvGZiYh2psU+G9zFyYfbcyGGVFY5ErATiH/roHVGHDVoS5SYmVoxd9CSwd9E2CBuhzh6sZViIiJahVP2s1h+EDcmm5RroAPTJzoxGHoE2GSFywiY5fPp62wrxFB79M/4/e/eTPv8HTcSQEREROnhBkJEREQ5ikkAERFRjnr+2bNnmx0DERERbQKuCSAiIspRnA4gIiLKUUwCiIiIchSTACIiohzFJICIiChHbXASIG5oY3dv7F3XSnDEkuZmPEFcq7PgmvKeE0REtK7iN+PJzRhSyyIJkHYJDL3qhtdvK0a3I3Kf/ELk5TvgSX1VUh5HlkmI24HiyXfQLf/zvIFh1Cl+DypU29/BrZLVxyu3MjYKne6K+Dr/ffKTPV+Hz7Ws+0553+Mz3ddYWOe7EBEhMIWuE1MbtgXwYp8Ng2v5izxLwYlOmBvksYhJhjn86lTcJTGVLPcOCO2+J/7d/fT/nr4BbQ/uZ3Yr6xAetq7dtonZ8cJetQzHbGvUzn32kq+wf/Y+LqvFUYJihz4Sq/oIus9aUOzwrlH83+Pq8d9i/Ml7eD2d041/xJMnYuLwn2twdyKi7cOAmoHenRNDYAoXxzQoM8W28qvZ1VC06q2E3z5YitalX4AUe+sFRywo/ngGgLRRj0m5LHp738R1tSwVAM5L+MZqh+PHNrTOSNsMj1jQj3ew9LG0LW8oiXA7kFd1SazAWYh+2b0Quwtf7I6B7lvotzbhoXxzoZhjj5dmAGdB1JbKqsNNsOQrbLMcELcN1sd8D0n5n+Fvh36D/4g5vHD+CsrPhX56AeNP/phGkhC9/e/BC2+jv+Il8QfP19D96VfxfRpb60bdX3dF/N/m1/Dko1fFuv7rN/h88RE+mIiOb+H8FXz7v97Hh8ZQPD68GYo9wxiIaCeK3nq3rCl6N757fTYMugF5Qxic6ETzWKShDG8XDMRsvRvTeHqcMPd4pR+kMvkxt02KI3WjmzSGqPuoUdPVIW6PLPu8j+Tni4Fj+sI4djf1wjRnw5rPpgsZ8win884IC4IgCMKKcLVWL5yeT//qhTOx58vrizF/RtiTp5e9xPNWhhvE9/4hoTZPL5yeXxGu1jYIV/2ysgTxxd9fEAT/kFBbOySsJDhH6ZqV4QahdnglfI/a4SGFz5Hg+wnHneSLCvtO+FT7F0Eb9fpS+NKncOrCV4L2k++iDj0d/VJoGA2kPCYIgiD4vhUarN8KT2XnxdaXOMavBLdSPLJY5fd1f/IX4dMFheuzjoGIdg6/cLu9Ufgi/DvCI3xRf1K47RcEwT8pnKqPlK3cOCkc7fXE1bBy46Rw6oZfdv1F4YdQ4cJF4Wj7pPg73z8pnJKXxfihVx5HZqJj8Au326XPoMgjfFHfKDs/Ukfo80XHIp5/NPRS+A7SkeVIwCVU5ou96n1nZ3E53d6sol0oKL2EyvxlOGb7UR27la/CdEAQwL6z9TBiBii1w2IC7sjKxTIgNFJx66cgYEoyUqEuxX604U7gCKrVXtz80Q5Lazqx/4JrdVVYbrqPyyYv7B8vx5SrUPgKEHsU6iO4/OBIOjcA8Co+fPIqPvTPwnISOB3TK14ZG4Xh+D8jB5q1KWt88V9/i8k/3YHuJ6nHHqrr7lNMTvwTk7pHsvrSDDOR5lfwnka6b8V70ghMYusSAxFtM374/AaYwj1/A0wmJ9w+AFoAmnIckMpUpmLo7wYQRJLxaM88puHFtHxLX83LAICgew6oOLaqIfX0qKHVBdDdboMvZlRDpDB9IE0DtAwoTSmL59eIJ2L6RCe6JmJHEVJb3ZoAtwN5VW249pZC4502Faov30c1grhWV4i8mVLlZCBLj5dmAH0aMTQVoO6vQVTvuQU0taaY3ABUewrwTVVVZEg/sCQNM8kFcf/HUhSYsww+Ff8s/vM48Ln7fbGh9XwN3X+lcZ20XkBcPHgvMnyPmKmBTbIVYiCibcL3GEu6vSl/Z8NkhasxvjHdqAWGAFDU2AsXxMWG5p74KY5YQfcclhBAtzx5cdswHfdZ1HjtDTX+O4uYVveIoKkejtIZtLq8soPS0wMOb8LLlInJwHXrDJZ/WVVUUbHcdJZi/1vR/3ks/aTwz27aD/3kDK7dBg7EjGwY/1CP/tveuPMtqA+f63G14Rvr/pi1DL9geaYAhbEJjfRUwdo8Kvlb/KsGAJ5i9OKvmV1q/COeuHfj4OIzrAB48Y2XgOP3slzl/3f87M/sir/9LD61sHA+sj5hdTEQ0c6ggVbjhTu0Ej4whetuNbQKA52Lc17od2mSV2fcizL3uOLqeZVWg6WxcSwmufyRT3nZ/WKfDeYGZ9JrlRQ19uJchTqm3vhHClWHOuAa6A2/Wkxi4hCfzHhxcyyA3drMe8+rXhhYbbfjVonC4rcYHkchKp3SD85C9EPq8UNcJPdN6MRSO+bkQ/HOKuSFrpNGIF5OEdU3H5cg72PxvWXoftSogtFsB0pC5fJFiAYceKUKlRjCw9gKTfthqerBNbN8hMKAtqFbyMsvjMR9OWbaYqQH/dYmtKWIN2uaEjQ2X0G57gqAf8HnF14AfhKLoqcJ7kB3HGi5IS7Ei15MKB5/Uarv9IVRGEIL/BC5JrlX8R8XfoTBdAUfAFEjC4m8Xr0bMIlxHbywGy34R/gzZRcDEe0capQdL0dXuw2hgdSypl5xEV0AgH8czQ3jYoHJClfKIXADaprmYW63YVA6El6wZ7TiXEUnmsO97ejFf0UV5UB7J8xj8WWZiV7oKNa1iiHvqIWOqUcVEtlxuwgGRyxogT3NRxajrsS1ujbAnmAqIvaJgVQCw6grWcYHKZ50ICKitbfYZ4O7OLuGcSfFkMoqRwJ2AvFvHbTOSI8uJkrMTK2YO2hJ828iBHGt7Svsn+1nAkBElKFT9rNYfhA3JpuUa6AD0yc6MRialjRZ4TICZvl8+jrbCjHUHv0zfv+7N9M+f8eNBBAREVF6uIEQERFRjmISQERElKOYBBAREeWo5589e7bZMRAREdEm4MJAIiKiHMXpACIiohzFJICIiChHMQkgIiLKUUwCiIiIctQGJwHiDoNrs3vexguOWFA3stqNJ72w5zvgSX0iERFlJX5HvtyMIbUskgBpq+DQq254/fZjdjsi98kvRN4aNJ4eR5ZJiNuB4sl30B27b4DbkSCuIK7VFSokDQa0DQGVa/a9fY/PdF9v8ta7WyEGIsoJgSl0nZhav3YnxmKfDYNboNcWnOiEuSE6ltAxc4MN5j5v4ouTyHIDodAWvOLmO+ltqgMABrQ9uJ/ZraxDeNgau3fyRvPCXrUMx2xrejsIpmJqxfVXCjP43oiIKH0G1Az07pwYAlO4OKZBmUk2quBxovluMc4NvAsVQslK5jsWrnI6QIW3D5bim6VfUp4ZHLGEe/SxPXF5WTq9/eCIBXUOB+ryC5HnGMa1ush1wREL7CPDYll+IfIcUnYkjSpUOoH+quh7eRwxPXa3I3qEw30L/dYm5S2GdxVgX2kBXlb4bgpfAfR7lBt5o9kOTM7EZbMeR/qjKwvnr0Cnu4du/Ipy3RXodFegO/+9VNHX0J2fxegx6bisp75w/go+C3/JMb14z9fS+VegOzaLlW0QAxHtROJweqinG9sbv9cXKnNiUToW1TOOHYoPTKGrIf4aAIDHKbtOKpOOdbuB6Z4E1ylIGkPUfToxHTVTkGj6IIDpC+PY3WSFSX4fnx/6NwzhjmlRsQHTc1mMBggZ8win884IC4IgCMKKcLVWL5yeT//qhTOx58vrizF/RtiTp5e9xPNWhhvE9/4hoTZPL5yeXxGu1jYIV/2ysgTxxd9fEAT/kFBbOySsJDhH8ZpV8win88SY5RbO6IU9slhS+074VPuV4I49vPCVoNV+KXzpE398Ovql0DAaEARBENyf/EX4dEHhet+3QoP1W+GpELlG+8l32yQGIto5/MLt9kbhi/DvCI/wRf1J4bZfEAT/pHCqPlK2cuOkcLTXE1fDyo2Twqkbftn1F4UfQoULF4Wj7ZPi71n/pHBKXhbjh155HJmJjsEv3G6XPoMij/BFfaPs/Egdoc8njyX6c4vfl9L3kEqW0wGXUJl/CQCw7+wsLptSnJ7ULhSUXkJl/jIcs/3xvW2F6YAggH1n62HEDFBqh8UE3JGVi2VAaKTi1k9BwJRk2F1div1ow53AEVSrvbj5ox2W1tV8pnTsQkFp/FFj631ktot2Es2v4D2N+PbFivfQn+L0lbtPMTnxT0zqHsnq2AExENE244fPb4ApPLRtgMnkhNsHQAtAU44DUpnKVAz93QCCQOLpWs88puHFdIMtckwjjt8G3XNAxTEUrcfHiKKGVhdAd7sNvialYXuF6QNpGqBlIH5KXHXoGGpOdMLcINZdU2EAUg/Kx1ndmgC3A3lVbbj2lkLjnTYVqi/fR7W0kC5vplQ5GcjS46UZQJ9GDE0FqPtrENV7bgFNazT3n9QvWJ4pwIE1+pxr5eCFt9Ff8VLOx0BE24TvMZZ0e1P/zjZZ4WqMb0w3aoEhABQ19sIFcf7e3AOUKSYDEUH3HJYQQLc8eXHbMC19lrJTvSgLnTvRCf0uTcYxrW5NgKkejtIZtLrk8xDS0wOOTOcmxGTgunUGy1lkM8q8uOksxf63ov/zWPpJ4Z/dtB/6yRlcuw0ciBnZMP6hHv23s1t5mVBgCUsKawkyWRMQ8Xf87M/s9n/7+SkAYOH8PXRLx1584yXg+L0sV/lvhRiIaGfQQKvxwh1aBxCYwnW3Glpt/JmLc97UjZ9xL8rc4zFz8CKVVoOlsfGkc/2PfMqP+S32pbdOIFZRYy/OVahj6o1fE6A61AHXQG/41WISE4e4ZEYaMag8lHmvMsuRgHCIqLbbcavkFjytBiRblOhxiIvyAADOQvRD6vFjGHUlbfgmdGKpHXPyoXhnFfJC10kjEPGL8KJ983EJ8j4W31uG7keNKhjNdqAkVB56ygEADDjwShUqMRQ/HG/aD0tVD66Z126EwuNqAw7OrsGIw6v4jws/wmC6gg8AoPk1PPno1aRXvF69GzDdge44cPDCbrTgH2KBpgSnL4zCoLsSPrflxvv4MOVq060QAxHtHGqUHS9HV7sNZulIWVMvytQAAgD842huGBcLTFa4UjZ+BtQ0zcPcbsOgdERf0YH2Q2rAaMW5ik40h3vbBrQMWMPTA0UV5UB7J8xj8WWZ8WKwwYlpWUwtA6tpUOT1ZR/XjttFMDhiQQvsWTx6F8S1ujbAnqChdzuQ11OAuctHVt9wr2VdREQUZ7HPBndx5o/M7bQYUlnlSMBOIP6tg9YZcdSgLVFiZmrF3EHLGjzb74W9Crj+gAkAEZGSU/azWH6Q2RJp10AHpk90YjA0LWmywmUEzPL59HW2FWKoPfpn/P53b6Z9/o4bCSAiIqL0cAMhIiKiHMUkgIiIKEc9/+zZs82OgYiIiDYB1wQQERHlKE4HEBER5SgmAURERDmKSQAREVGOYhJARESUozY4CRA3F7K7N/auayU4YkHdyPrtObXe9RMR5Yb4zXhyM4bUskgCpF0CQ6+Md7zLgNsRuU9+IfLyHfCkviopjyPLJMTtQPHkO+gO/clgKbZIXV7YU8YXv8OiPB7VYTv2T5asaZK0MjYKne6K+Dr/fYqzv8dnoXOPzWJl7cJQtHD+Cj5b7T8oEeWWwBS6Tkxt2BbAi302DG7i76ngRCfMDbbIqy/UfohJRvzxzGS5d0Bo9z3x7+6n//f0DWh7cD+zW1mH8LA1fg/ojeWFvWoZjtnW6L/3X1qKpdtewJRJfKXY9+MteKC066K4K2NdiQOe8O6Gq/E9rh7/LcafvIfX0zr/VXz45FV86J+F5eSqb05EtEkMqBno3TExhHc8VKi/BgAQEPcs8GS+WdEqpwNUePtgKb5Z+iXlmcERS7hHH9vTlZel09sPjlhQ53CgLr8QeY5hXKuLXBccscA+MiyWyXvdUs+90gn0V0Xfy+MojB6GdzuiRzjct9BvbYrfXfCVJnyAHlyLHe0JyO6fH1M3CvBBE/B5omF/9RF8YL2Em7GjAVKdGY0S+J/hb4d+E7/1sufryOiALt3euGyUQHcFlrGnsvvMwhIu+xoLqaqS7l9+Duj+U+x13+Mz3dcYlY1ghOJbGRuV3fcpRo+NYjS0UUemMRDRFhfd043tjd/rC5U5sSgdi+01Rw3FB6bQ1RB/DQDA45RdJ5VJx7rdwHRPgusUJI0h6j6dmI5qO1YzfeCHz6+GVpvFpULGPMLpvDPCgiAIgrAiXK3VC6fn07964Uzs+fL6YsyfEfbk6WUv8byV4QbxvX9IqM3TC6fnV4SrtQ3CVb+sLEF88fcXBME/JNTWDgkrCc5RvGb+jLDnjEcQ5s8ItcMrST5HJLbIOR7htHQ/pbpXhhvEumNjzEv3u/5O+FT7F0Eb9fpS+NKX6NyvBLf8kO9bocH6rfBUdujp6JdCw2gg9fULXwnamGsTcX/yF+HTuC9MjD18L1ks0TEEhC+toc+UfQxEtBX5hdvtjcIX4d8PHuGL+pPCbb8gCP5J4VR9pGzlxknhaK8nroaVGyeFUzf8susvCj+EChcuCkfbJ8Xf+f5J4ZS8LMYPvfI4MhMdg1+43S59BkUe4Yv6Rtn5kTqO1jdKr5jrpe/iqMJ16cpyOuASKvMvAQD2nZ3FZVN2tYh2oaD0Eirzl+GY7Y/vbStMBwQB7DtbDyNmgFI7LCbgjqxcLANCIxW3fgoCpiTTFepS7Ecb7gSOoFrtxc0f7bC0phm+qR77ey7Bc3i/7KAX9vwq9Id/LoUj6iIDLAd70O8+ggMKVar2FABLsTEeweUHR9IMKnpY//TFErwoL/bPwmJ6hMnwgRcwnqLGF//1t5j80x3ofnoNTz56NVLg8aEbvwK6K5Fjh36TZpyJvIDGipfEt5oS9F8U3yZco7AuMRDR5vHD5zfAC4B7eAAAE6BJREFUFB7aNsBkcsLtA6AFoCnHAalMZSqG/m4AQSDx9uyeeUzDi2n5lr4acYw06J4DKo6haD0+RhQ1tLoAuttt8DUpDdsrTx+oDnXAdUj6weOEud0J7YBVjFf9LtoH3kVoOqALStMGya1uTYDbgbyqNlx7S6HxTpsK1ZfvoxpBcVh/plQ5GcjS46UZQJ9GDE0FqPtrENV7bgFNrYn/Y1K49u2Dy+iXDdN7HFXoDycvQVyra4u/6q13sORSXsgR/GkZ+/S70o4gM08xevIRcOFtPKl4CeLwuy/1ZcY/4skTSEP594BmWTLQHJMYbIatEAMRbTzfYyzp9qb+nW2ywtUYv35rI5/HKmrshQviYkNzD1CmmAwkYdyLMswrFKjx2htqDP7iB5BZ47m6NQGmejhKZ9Aa1ZjFr4BPj5gMXLfOYDn1EoM0eXHTWYr9b0X/57H0k8I/u2k/9JMzuHYbOBAzsmH8Qz36byf+PKrDTcDtW1HHwo24+xJaZxQuUh/BB7iFmwpFj5dmoN8T8590NmsCkvi3fxV72itjP6I7kwuNf8QT924cXHwm9syNWrSc+zEyN5+hv/38NPVJMpM//QoAWBmbxQcToZhWFwMRbTUaaDVeuEPrAAJTuO5WnvNenPNCv0uTvDrjXpS5x2Pm4EUqrQZLY+NJ5/of+ZTn6Rf70lsnEKuosRfnKtQx9aZeExCcGMe05mW8EFcSwL27AZQVZ76IPsuRgBBxNfutklvwtCqtdo/wOMRFeQAAZyH6IfX4MYy6kjZ8Ezqx1I45+VC8swp5oeukEYi4hW4xvvm4BHkfi+8tQ/ejRhWMZjtQEioPPeUAAAYceKUKlRjCw9gKTfthqerBNXOiEQoDDqAKlajHgdh7WO1wlC4rxmn8A1BZBVj+IDsYGMbnznp8kO50RMZewnvHXoDuT1fQDeDghd1owT/Eophpgkndo3APe+G8uJAvpOXG+9IUw6v48IYPOtMVfCCVHbzwNvpDw/lJvF69GzDdge44ALyA8Sd/TPoUw4sVr6BFdw+6c/eA5t34/FAogcg+BiLaitQoO16OrnYbzNKRsqZelKkBBAD4x9HcIE1imqxwpRwCN6CmaR7mdhsGpSPhFfdGK85VdKI5PFVgQEtouB1AUUU50N4J81h8WWa8GGxwYloWU8tA6l77Yp+4OBEAoCnHuVPviqMegSl0tY+HZ44zHlWQ7LhdBIMjFrTAnuYji1FXisP29gQNvduBvJ4CzF0+ksFUQabERy6Xm+6jbVXrLIiIcttinw3u4uwaxp0UQyqrHAnYCcSGt3VGHDVoS5SYmVoxd9CSwd9EyCKSkTbcOrjahZZERNvbKftZLD+IG5NNyjXQIT4rH5oWNFnhMgJm+WLAdbYVYqg9+mf8/ndvpn3+jhsJICIiovRwAyEiIqIcxSSAiIgoRz3/7NmzzY6BiIiINgHXBBAREeUoTgcQERHlKCYBREREOYpJABERUY5iEkBERJSjNjgJEDcXWqtNcDZacMSCupHV7jnlhT3fAU/qE4mIKCupN+PJjRhSyyIJkHYJDL3qhtdvK0a3I3Kf/ELkrUHj6XFkmYS4HSiefAfdcX8yWNoCWZ7cSDv+KcdrQNsQULlm39v3+Ez3NRbWpK7tHAMR5YTAFLpOTG3YFsCLfTYMbmKvLTjRCXODLfLq8yofl5VlIsu9A0K774l/dz/9v6dvQNuD+5ndyjqEh62Zb4+4trywVy3DMdsav3mQ+xJaXxnCw8uyGNVHcPnBEXgchfh8pD7+uzG14vorheu6DwERUe4yoGagd8fEEN7xUEZ1qAOuQ5GfgxOduIgUWyorWPVWwm8fLEXr0i9Air31giMWFH88A0DaqMekXBa9vW/iulqWCgDnJXxjtcPxYxtaZ6Rthkcs6Mc7WPpY2p44lES4HciruiRW4CxEv+xecBTic/1spEGO3THQfQv91iY8TLC50D79LsXjL+tLE34Go9kOtM0geDh6V0KPoxCVP9rT2q0wantf3RXxf6Wtf+H5Grr/+g0+X3yEDyYA+Va9C+ev4Nv/9T4+NAJiL96HN0Pb+Hq+hu5Pv4p1HdoN78USacvgrRsDEe1E0Vvvxm6Ve6/PhkE3IN/eNzjRieaxyPB7VOMZtfVuzJbAHifMPaFetFQmP+a2SXGk3ko4aQxR91GjpqtD3B5Z9nkfKTT4qXlxc0yDyjS2Jo4jZMwjnM47IywIgiAIK8LVWr1wej79qxfOxJ4vry/G/BlhT55e9hLPWxluEN/7h4TaPL1wen5FuFrbIFz1y8oSxBd/f0EQ/ENCbe2QsJLgHMVrJCvDDULt8Ipy4fwZYc8ZT4JvwiOczhNjlls4oxf2yGJJ7TvhU+1Xgjv28MJXglb7pfClT/zx6eiXQsNoQBAEQXB/8hfh0wWF633fCg3Wb4WnQuQa7SffbZMYiGjn8Au32xuFL8K/IzzCF/Unhdt+QRD8k8Kp+kjZyo2TwtHe+N+zKzdOCqdu+GXXXxR+CBUuXBSOtk+Kv2f9k8IpeVmMH3rlcWQmOga/cLtd+gyKPMIX9Y2y8yN1HK1vlF7K10ffJzNZjgRcQmW+2Kved3a1W9/uQkHpJVTmL8Mx24/q2ERGYTogCGDf2XoYMQOU2mExAXdk5WIZEBqpuPVTEDAl6VerS7EfbbgTOIJqtRc3f7TD0poqbi/s+VVYOjubeEjf1IqHcCAvv0fhs+1CgcJAgbH1PjLbQDOJ5lfwnjQ69GLFe9LoR2Ird59icuKfmNQ9ktWxA2Igom3GD5/fAFO452+AyeSE2wdAC0BTjgNSmcpUDP3dAIJIMh7tmcc0vJiWb+mreRkAEHTPARXHkvbu14YaWl0A3e02+GJGNUTK0wdRw/4eJ8ztTmijRiO8uDkG/M+uLEYBsNo1AW4H8qracO0thcY7bSpUX76P6tACu5lS5WQgS4+XZgB9GjE0FaDur0FU77kFNCnM/ccR1zeITwzYlRMBtwN5t/fj4QOlNQ2/YHmmAAfW6HOulYMX3kZ/xUs5HwMRbRO+x1jS7U39O9tkhasx/nfxRi0wBICixl64IC42NPfET3GkZNyLMsxHHQpOjGPaVA5Xlm3J6h4RNNXDUTqDVpd8RaL09IAj01WKYjJw3TqD5V9WFVVULDedpdj/VvR/Hks/Kfyzm/ZDPzmDa7eBAzEjG8Y/1KP/tvLnUe0pSHj34E/LCdcLILCEpdICvBxz2OPI5omLv+Nnf0YX4G8/PwUALJy/h27p2ItvvAQcv5flKv+tEAMR7QwaaDVeuEOr8gNTuO5WQ6uNP3Nxzgv9rhQL4ox7UeYex7TC03oqrQZLY+NYTHL5I5/yY36LfTaYG5z/f3v3F9PWdQdw/Luqb3ttWgyJUhKIhCpNMnUzjbYrLVuToQ5RsUEnNYoJ2MMkmvZCsJCjFIU4TnhoO42QQNKhIi2F5p9IBKEJCdrWTCXGlrKuSAnJmibFDuyl6rpNmqqzh3sN1/a1jW2aEPv3kaLge+6599iJfM/93d/hl7SvmbKWXrprC2KOm3pJ4cL5ESYs63jC0OfCWdhWm3nyfNaJgQ1eL+MV4wTc1qTJfAFfKXV9+ou+UvrR7/j5kB0VehIfQKWXKWMovq+e4kg/PQIRe+GMdWV3BcW7tZ8dwzejogrldi9URNqNSYhWtm6qp47h+HC8bQuO+sMM2VcuQhEY6IDqq8uIOKTyDG/03MBqO8EuWErKS+LZhvVgu0zRTqjuWU8732gNlgr295zBGknwA9rPRZL3VvsYhBC5o4CqnTV0eVzY9S1Vrb1aEl0YCI3Q1jyiNdicDKRMpLOyrfUado+LQX3LYsJeuZPu2k7aFh8VRCf/ldXWgKcT+9n4tvREJzpqx0p9QZk54uJgZPm5pYbufT9bvG5kGwWAHKwiuHDSQTsJwvPJezK0owO8CS70sSsGjNsvbTFdxhiIXXWQ6lhCCCFWxMwRF/7NaYbbc3AMqWQZCcgF2u86cE/qSxcTzahsbqaqHfFr+21N+A5XULzBsPQxHIluNHHqduxlPoi3Hk7dlgmAEEKY2ec9xK3b6aVIDxzby8SeTgYjjyVtTgbKwW5MBvyOrYYxNG5/k5defH7Z++dcJEAIIYQQyyMFhIQQQog8JZMAIYQQIk/JJEAIIYTIU49/9dVXD3sMQgghhHgIJDFQCCGEyFPyOEAIIYTIUzIJEEIIIfKUTAKEEEKIPCWTACGEECJPPeBJgFZh0OtPvedqpJUNzrbwZBDvBh+B1DsKIYTISOqKfPkxhtQymATopYIjf9Iue5sGv2/pPBtKKV6Bi2fAl+EkxO9j8+irHIwqBmT8LIxjW2BoR2S7g6Go/wNWOoahbsU+t7/zu6KLD7n07moYgxAiL4TH6Noz9t1dd2LMHHEx+LDv2sJjdDW7sDe7sBvf++L29MsZR2RYQChSglcrvhNXVCchKx23b6Z3KuewaYW+ByuIt/4Wvqtuk6I/xnLEEWtoeO8mDZHKhLFsbk5tKk3jcxNCCLF8VrYd682NMYTH6PLcpe5Yb3QJ40Af9jPr6O6q4ajnbsaHz7KK4Bpeqa7EPXsPUtTEWzjpYPPuScBQbc+kzfyiGn+s9tmN0HecK04vvhsduCe1futOOujnVWZ3d3AFliYRfh/F9ce1A/SV0m84F7Elf2NL/frH6Xe28o8sajbHKrd7oWOShV9EVxMM+Eqpu+FdVpnh6XdOUNOtvyg6of3d9gO+/O0zELhI0Z++z+9n7rDrPMATjHz5U57V+33841/xm3LQ7uLneF5vI3CRop//UzvWa+sJHq3gyVU+BiFELgoy2NzHhP6qqjW6JO/1Iy4G/QBW2o85KQMWznfSdnYp9FpSuxfPa/oXd3iMLs8Is0T3AbQL6uGg/kJvM27zu/RxxPQzkXQMUecpYFvXXqoWryva+71j3B+YOTvC+tbe+HOWaxUKCY8lGc0yqLQF1P7iA2paKaXUvPqgsUTtv7b83tMHYvc3Hi/GtQPq6eISwx9tv/kPm7WfQ8OqsbhE7b82rz5obFYfhAxtCcYXf36lVGhYNTYOq/kE+5j2STX2xfNr4zLvG982faBEPW0YS2qfqncLP1L+2M3TH6nCwtPq9Jz28v6Z06r5TFgppZT/7T+qd6dN+s99rJqdH6v7aqlP4dufPiJjEELkjpC65GlR7y9+RwTU+01vqUshpVRoVO1rWmqbP/eW2t4biDvC/Lm31L5zIUP/o+qzSOP0UbXdM6p9z4ZG1T5jW4zPeo3jSE/0GELqkkd/D6YC6v2mFsP+hj7njqrtTS1qe1x76vGnkmEk4Dh1G7S76pcPXeU9W4rdk1rLxsrj1G24he9qPw2xd9smjwMWgJcPNVHOJFR6cdjgsqFda4NIpGL88wWwJbmvLqhkCx1cDv+ShoIgF254cbizeU/LsZaNlfFby903Sa+KdhJtm3jdov34ZO3revQjsflP7jN6/r+MFt0xHCMHxiCEeMSEmAtZsS3e+Vux2frwzwGFgKWGrXrbGttmSj4Js0CSeHTgGhMEmWh2LW2zrANgwT8Ftb9Oene/MgooLApz0ONiLiaqoTF7fBBiLhRm4l4NA8ecaNGCo0zYjBGE7GSXE+D3UVzfwdALJhfvZTM+Py+leLLSfDKQobuzk1CyjDG0bmTHXxZoeHocWs2e/a+0e9ya3MjWFXzEsBKqe16hv/apvB+DEOIRMXeX2aLnUn9n25wMtMTnlz2oBEOAspZeBtCSDe2H4x9xxLNQaClgW21k3IbJ0ApdO7JbImhrwlc5iXsgaNioZ8z7ggm7mdMmA6eck9y6l9WoosZyoa+SLS9E//eY/dzkn922hZLRSYYuwdaYyEb5T5rov5Tu+0khPMts5UbWxWwO+DJZcfEvvgild/q/fXEfgOl3rnNQ3/bkD5+CndczzPJfDWMQQuQGC4WWIP5IVn54jFP+AgoL4/ecmQpSstaS/HDlz1HlH2HCZLXemkILs2dHkmbX35kzX+Y3cySzzPyyll66awtijmu2pFCLHvzVH17cx5/gc8hU1omBDV4v4xXjBNzWpMl8AV8pdX36i75S+tHv+PmQHRV6Eh9ApZcpYyi+r57iSD89AhF74Yx1ZXcFxbu1nx3DN6OiCuV2L1RE2o1JiFa2bqqnjuH4cLxtC476wwzZVy5CERjogOqrKxBxeIY3em5gtZ1gFywl5SXxbMN6sF2maCdU96ynnW+0BksF+3vOYI0k+AHt5yLJe6t9DEKI3FFA1c4aujwu7PqWqtZeLQQeBkIjtDWPaA02JwOvpfpitrKt9Rp2j4tBfctiwl65k+7aTtoWHxVEJ/+V1daApxP72fi29EQnOmrHSn1BKWvZy4/2RM5v/ByMiY5wsNmVMNqRTM5VEVw46aAdbwZL7/TlfN4EF/rYFQOAFvUYZ2vC1QwJjml6LCGEECtl5ogL/+ZU4fbcH0MqWUYCcoH2uw7ck/rSxUQTM5ubqWqHydr+SJKkMaqwdEyoxBd1oCDeejh1WyYAQghhZp/3ELdup5ciPXBsLxN7OhmMPJa0aUvo7MZkwO/YahhD4/Y3eenF55e9f85FAoQQQgixPFJASAghhMhTMgkQQggh8tTj/PvPD3sMQgghhHgIvqf+Nyc5AUIIIUQekscBQgghRJ6SSYAQQgiRpx4D+PbrEN9+nebvfBVCCCHEI+0xgG+m/sB/ZrKsSSyEEEKIR8r/AfrD/byfeXaRAAAAAElFTkSuQmCC;" vertex="1" parent="1">
                    <mxGeometry x="30" y="10" width="513" height="312" as="geometry"/>
                </mxCell>
                <mxCell id="3" value="" style="shape=image;verticalLabelPosition=bottom;labelBackgroundColor=default;verticalAlign=top;aspect=fixed;imageAspect=0;image=data:image/png,iVBORw0KGgoAAAANSUhEUgAAANUAAACoCAYAAAB3/KucAAAMnklEQVR4nO3db2wb5R0H8C+Ubg1yCEnaODTR1A5ComVJK4oaqpV1SNQpxi9QMg20RakyaAt9wyymJeZFEbwgyQuUvQIKDVGsbtLQYmmSF1IHqUXtlKVqoWnJluKKIdSExGkc3FpNRTa6F7YT27nz/fEv9hG+HwnR+u65exLu6+fPHc/dsbCwcBtEJObOfFeAaK1hqIiEMVREwhgqImEMFZEwhopIGENFJIyhIhLGUBEJY6iIhK2JUC0MdmGq2Y3ZsXzXZDUEEfD6MDpnoMjcKHy+UYRXrU6UyV35Pf0sRn/zEi77kj460oFWz09ycO4ZhD1duPVZ6qfrj/Rg0zaZM1x/x42blR0od9pNHiGMUd8IojUuOEoNFCttQF2hF/7hErTurTJ5bjIrq1B1d3ejvb0960qUf+SFYycA/AuBgi747n8DTb/apLt8gbMDBU5z55YMkbTw2VO4jGq4dpYYLlu114Wwz49AsAoO5iqnTIequ7tbsh5xm1DUBER1738Rs819WAQA2LHhrQ6UlCVvT2+N6mEbaMM9msedQdjTBzxqx63ei0BjG2zoQ/TEcggXBrsQQRvuvtqF6IlYqeRt870z8WN1Yao3/sfGNmw+aEfY04VvHk1uwWYUPgvi3ARQ/WQDUiIVGsJLB44BB97EG67YDzv29i/h+WAfOv/2HJa/H0rQUFcO76VRhKvSjkGryvSYSqKFWmFyDJM+wLZFbytVj00DPdg80Ib1ClsXBvtwa2sbNg/0xP/RE6iEGdw6XYnit5y480QfblZ2oPhZOxZHLy7t8W1vF25WdsSOfaQei6/14TpiLefmgR7YGoE7n+1YPv/BegB2FDxqx7enL2IhcaDQRXzzmR0/eDipmxj8D6ZtFahK7/aV7cMbr+7Dv9/9I/whABeOKQQqrmoryqOTCBoZj1HW8jymipne0wovAOABVF/xoqFC8OAnzuP6wXrVMC2+5sbU0t9SW7v1z+xFAYYRQT3udtqBwbTCjW3LLcu2HViPQfw3BKAMGRU4nYj2DmIhtBcFZcDCufP4ttGZ0sqG56NA4VblFmb7c3jvwMv4rW8I+HwIrlf/ujJQAIBSFNmiiIQBGBmTUVYsEarYmCo2aTH5j1nAwHgqkwJnBxavuhFtdiOKWKuRPmkgO6aawf++gmaogHr8sLEPN8/NAE5g4TSwwV2fssdcJHMnuNz1Oxz+w2G8+eNXMLhdba8SlBQCk/NhgB3AnLHQlPomNLz4OKL7P0BQ8Kj3HFzu+q3r7cL04Ix2IdPsWHefzno11Me6gKGL+AY7UJAWxNIiW8byY28fxsmfv4LDn7+Kl/whlb3CCN8AbMUMVC5ZKFQAdj6B6qYPcen92dTPgwF4vV54h7OJmx3rHsyqdhldf6cPiw+mhmN9ZdrYKdk2JzZgEJGe81j3zF4UpG0uKbYBN8LK95ri46hWVx1cv38OSIyvVphDJGpDETOVU1nP/klNq8fEWivvnrcw+rMj2mOrsT5MvbY8cbD4ghtTS+MihftQjW3YnNb9Sx1TGewOnujDVHzmDw86UdyZGo4CZxsWTndhvnkQ84nzH0x082ITFrd67bhb6XxVW1E+MoJzwYbUKfELx+B8JWkcVbYPrU8cg+fAy8C7r8OV3OLFJzse5ngqp+7gwi/mLAx2Yf6qMykk8scIn/XBf7UCriYzU+JhjPr8iNS18j5Vjlmr+/d9EhpGpBfY8JR6KEt2/gLVuIxTZ40/cBQc9uNy4S4GKg8YqlwLDWO62Y2pFwax7kj6zep0JWho2gXbxCnDz/5dulENFx9Rygt2/4iEsaUiEsZQEQljqIiEMVREwhgqImEMFZEwhopIGENFJIyhIhLGUBEJY6iIhDFURMIYKiJhDBWRMIaKSBhDRSSMoSIS9r0Jlaf7qOHtmcp4uo+aOqYeRssZrftqS/xu8lmHfLLECrWrxdN9FJ3th3R/rmdbgpnyenW2HxI5zmpJr1t6ePT8/vSw6s+vxXKhGv/LUQRKm+F+fKPC1ms4+fYAJncdQouOtfmULk49F2umMlpljQZCqzVUO4daXTOVl7pIlX5GvceW+L1YnbVCNX0GgS8q4HhaKVAAxv6JAGrhNrD2efp/RD0XZOKiybSPkXMa2V/rSyD5YkuuY3rd0+vwXb5IMX0GPf1fw9HuQm2+66KDyPuppFaoDX36JbDDofqLG5+YRO0ul/b6/3HpF5Ke7lvydokWR09rk7yv0pdApnqkBy5X3Ua9oTXaFfyudvmSmQpV+lLPMks/TyBwHti+X6WVWmrF9B/RaLcved/0PyfKKl0Mne2HDI3dlMKtFZzEdj1fBvmg9XPqKbNy/wkc7/4I4/G/HV/aXgjH/l/jsXIAY354Ru6F+yngT/3jCAHAlj3ofLoGSsOF0Id/Rs/cQ/Ht8fJDkyuPmwXLdP9CH36M8S0PoUXlBxr/aBzY0ZyT5j/Tha4nBHq2q53T7PZsz2/kuAlKodD7+9GnBi3tNdrdv8g4evor0NJ+CLXTZ9DT/zFOTtdoh2P6DHqGrsOx/9ByQPv9KMuym2kqVPKt1DWMX7mB2l01Ktsn8MkXhdi+R6UVWwXZjKmUjqVnckSLkdZgtWYQtVrs/MxaFsKxPx6E8hpsLxrH5AwAjVAlhhtL4dv2CBwjA/hkDKjN4p1llniRttYEhFYrpkTr3o2eVib932bpOUamb32tYyeXybe8BKvoR6hdujY24rHn9Z17du4GQl8MwHM+9fNse0NZTVRITVCMT0yi7IFHVCYgtFoxZWbHU+llzbDKPaZ81MHIF5EVvgTKdqjdvjFPZKIiK6swja6X9L2V1T6GqOkz6OkfR6ioFu7nd+ueUU2nNo4yMmupqXwjNmHcdLdsdvYagI3AmB89528AW2Kf19ZU4PhQACd/mv3kRDKRKXXA/LR66NMvEdryUMZpdPVWTFuuWw2rtFKa4mOPQORrzELHa4pVyE5MqKlBy74r8AwdhWcI0D9LtxGPPVWLC/3xLl5RLVp2XMfxxBtUtrnQCT88/UcRWCpTgZZ8T1RkJzaN7tiv0rXTasU0SIyFjBxLah8jzHehNqKsGADuhdHXlit18dRuoiuVNWWbC51KrZTa5wnlu+Fu351aLyPlTcjzlHp8ylRN+W64TeZX78Wr92HUbMOSfr8r07m0tqk9HpTpZ0k5b+LejImun1IXT4uZx5msMN4yi++nIhL2vflfP4hyhaEiEsZQEQljqIiEMVREwhgqImEMFZEwhopIGENFJIyhIhLGUBEJY6iIhDFURMIYKiJhDBWRMIaKSBhDRSSMoSISxlARCbPMWuqYG4Xv75cRhQ3VTzahoTT2cXDYi5GvANy3C617q/JaRSI9LLLwSxijPj8mK11o2lmiuj1S1woHc0UWZ5H3U80hErWh4n6lQAFACaoqbTg1Hwagtg+RNVjo/VREa4OpiQoGiEhd1q/SAQRCNhdGFDZsLVXfpaTYhuilIMI7G9gBJEsTmagw3/0LIuAdwbStGq4mHWEJBuAdmYatRm1Cgyj/8jylXgVHa1VsOt0bQF2rA2qTe+GzPvgjdWhtdeS0hkRGmRpTpb9GJ2ulJbAhivBc5t1sRRn6h0QWYfpVOrJT6kRrh+nuH4NEpMwiz/6VosgWRSSstj2M4NUobMWcnCDrs8hjStB+9k/vDCFRnlknVERrhEW6f0RrB0NFJIyhIhLGUBEJY6iIhDFURMIYKiJhDBWRMIaKSBhDRSSMoSISxlARCWOoiIQxVETCGCoiYQwVkTCGikgYQ0UkjKEiEmaJl74tLe4CrFzgZWlBGABpi8IQWZElQgVAfX300gY0tTYgtu76pZzXi8iorLt/4ktAE33HZRUqBopoJU5UEAkzHSq+kpRImelX6TBQRMqyaqkSYyqOrYiWmX4/VQJbLaJUIrN/bKmIlmV185ctFNFKnFInEmaZx5SiE354J6D57F9RvipIpBNf+kYkjN0/ImEMFZEwhopIGENFJIyhIhLGUBEJY6iIhDFURMIYKiJhDBWRMIaKSBhDRSSMoSISxlARCWOoiIQxVETCGCoiYQwVkTCLhGoGAV8BXhweVdk+ive8BXj97ExOa0VkhkVCRbR2mFpNSWnxTIk1AO1FWzJuLy+2Z30OotVmajUlLvVMpI7dPyJhphfTTO4CstUiWmY6VHzzB5EyU90/BohInek3KRKRMtNrqXNMRaSMLyggEsYpdSJhDBWRMIaKSBhDRSSMoSISxlARCWOoiIQxVETCGCoiYQwVkbC7roUj+a4D0Zpyx+3bt/nsH5Egdv+IhDFURMIYKiJhDBWRsP8DoQEI6qVblgEAAAAASUVORK5CYII=;" vertex="1" parent="1">
                    <mxGeometry x="40" y="340" width="213" height="168" as="geometry"/>
                </mxCell>
            </root>
        </mxGraphModel>
    </diagram>
</mxfile>